<svg xmlns="http://www.w3.org/2000/svg" viewBox="0 0 360 220">
  <title>Clio revenue intelligence signal flow</title>
  <rect x="0" y="0" width="360" height="220" rx="18" fill="#0B1120" />
  <g fill="none" stroke="#1E293B" stroke-width="2" stroke-dasharray="8 8">
    <rect x="20" y="20" width="320" height="180" rx="16" />
  </g>
  <g font-family="'Inter', sans-serif" fill="#38BDF8" font-size="12">
    <rect x="34" y="56" width="88" height="96" rx="12" fill="#020617" stroke="#38BDF8" stroke-width="1.5" />
    <text x="78" y="88" text-anchor="middle" font-weight="600">CRM</text>
    <text x="78" y="110" text-anchor="middle">Pipeline</text>
    <text x="78" y="132" text-anchor="middle">Signals</text>
    <rect x="138" y="44" width="84" height="132" rx="12" fill="#020617" stroke="#A855F7" stroke-width="1.5" />
    <text x="180" y="94" text-anchor="middle" font-weight="600">Clio</text>
    <text x="180" y="116" text-anchor="middle">Forecast</text>
    <text x="180" y="138" text-anchor="middle">Engine</text>
    <rect x="236" y="72" width="88" height="76" rx="12" fill="#020617" stroke="#F97316" stroke-width="1.5" />
    <text x="280" y="108" text-anchor="middle" font-weight="600">Board</text>
    <text x="280" y="130" text-anchor="middle">Narratives</text>
  </g>
  <g stroke="#22D3EE" stroke-width="4" stroke-linecap="round" fill="none">
    <path d="M122 96 C 134 86 134 86 138 86" />
    <path d="M222 110 C 234 110 236 110 236 110" />
    <path d="M222 118 C 234 130 234 130 236 130" />
  </g>
  <g stroke="#F97316" stroke-width="3" stroke-dasharray="4 6" fill="none">
    <path d="M80 152 C 120 182 240 182 280 152" />
  </g>
</svg>
