<!--
  Diagram provenance: Derived from observability-fabric.svg to align with the Morpheus observability narrative.
  Maintainer note: preserve coordinate system so downstream optimization stays idempotent.
-->
<svg xmlns="http://www.w3.org/2000/svg" viewBox="0 0 360 220">
  <title>Morpheus observability telemetry grid</title>
  <rect x="0" y="0" width="360" height="220" rx="18" fill="#020617" />
  <g stroke="#1E293B" stroke-width="1.5" fill="none">
    <rect x="28" y="40" width="304" height="140" rx="16" />
    <line x1="28" y1="92" x2="332" y2="92" />
    <line x1="28" y1="132" x2="332" y2="132" />
    <line x1="112" y1="40" x2="112" y2="180" />
    <line x1="204" y1="40" x2="204" y2="180" />
    <line x1="296" y1="40" x2="296" y2="180" />
  </g>
  <g fill="#38BDF8">
    <circle cx="70" cy="72" r="6" />
    <circle cx="160" cy="72" r="6" />
    <circle cx="250" cy="72" r="6" />
    <circle cx="310" cy="72" r="6" />
    <circle cx="70" cy="112" r="6" />
    <circle cx="160" cy="112" r="6" />
    <circle cx="250" cy="112" r="6" />
    <circle cx="310" cy="112" r="6" />
    <circle cx="70" cy="152" r="6" />
    <circle cx="160" cy="152" r="6" />
    <circle cx="250" cy="152" r="6" />
    <circle cx="310" cy="152" r="6" />
  </g>
  <g font-family="'Inter', sans-serif" font-size="12" fill="#F1F5F9">
    <text x="70" y="196" text-anchor="middle">Synth metrics</text>
    <text x="160" y="196" text-anchor="middle">Runtime</text>
    <text x="250" y="196" text-anchor="middle">Human review</text>
    <text x="310" y="196" text-anchor="middle">Business SLAs</text>
  </g>
  <g stroke="#22D3EE" stroke-width="3" stroke-linecap="round" fill="none">
    <path d="M70 60 C 120 40 160 40 200 60" />
    <path d="M160 60 C 200 40 250 40 296 60" />
  </g>
</svg>
