<!-- Auto-generated by scripts/brand/build-solution-diagrams.mjs. Edit assets/solutions-diagrams/raw/*.svg instead. -->
<svg xmlns="http://www.w3.org/2000/svg" viewBox="0 0 360 220" focusable="false" role="img">
  <rect width="360" height="220" fill="#020617" rx="18"/>
  <g fill="none" stroke="#1e293b" stroke-width="1.5">
    <rect width="312" height="156" x="24" y="32" rx="16"/>
    <rect width="96" height="156" x="24" y="32" rx="16"/>
    <rect width="96" height="156" x="132" y="32" rx="16"/>
    <rect width="96" height="156" x="240" y="32" rx="16"/>
  </g>
  <g fill="#f1f5f9" font-family="'Inter', sans-serif" font-size="12" text-anchor="middle">
    <text x="72" y="60" font-weight="600">Ingest</text>
    <text x="72" y="80">Global feeds</text>
    <text x="180" y="60" font-weight="600">Normalize</text>
    <text x="180" y="80">Policy graph</text>
    <text x="288" y="60" font-weight="600">Assure</text>
    <text x="288" y="80">Risk signals</text>
  </g>
  <g fill="#38bdf8" font-family="'Inter', sans-serif" font-size="11">
    <rect width="64" height="32" x="40" y="100" fill="#0f172a" stroke="#38bdf8" stroke-width="1.5" rx="10"/>
    <text x="72" y="120" text-anchor="middle">Logs</text>
    <rect width="64" height="32" x="148" y="100" fill="#0f172a" stroke="#38bdf8" stroke-width="1.5" rx="10"/>
    <text x="180" y="120" text-anchor="middle">Mappings</text>
    <rect width="64" height="32" x="256" y="100" fill="#0f172a" stroke="#38bdf8" stroke-width="1.5" rx="10"/>
    <text x="288" y="120" text-anchor="middle">Evidence</text>
  </g>
  <g fill="#a855f7" font-family="'Inter', sans-serif" font-size="11">
    <rect width="64" height="32" x="40" y="146" fill="#0b1120" stroke="#a855f7" stroke-width="1.5" rx="10"/>
    <text x="72" y="166" text-anchor="middle">Adapters</text>
    <rect width="64" height="32" x="148" y="146" fill="#0b1120" stroke="#a855f7" stroke-width="1.5" rx="10"/>
    <text x="180" y="166" text-anchor="middle">Ontologies</text>
    <rect width="64" height="32" x="256" y="146" fill="#0b1120" stroke="#a855f7" stroke-width="1.5" rx="10"/>
    <text x="288" y="166" text-anchor="middle">Controls</text>
  </g>
  <path fill="none" stroke="#22d3ee" stroke-linecap="round" stroke-width="3" d="M104 116h44m64 0h44m-152 46c20-12 28-16 44-16m64 16c20-12 28-16 44-16"/>
  <path fill="none" stroke="#f97316" stroke-dasharray="6 6" stroke-width="3" d="M72 94c56-34 160-34 216 0M72 184c56 20 160 20 216 0"/>
</svg>
