<!-- Auto-generated by scripts/brand/build-solution-diagrams.mjs. Edit assets/solutions-diagrams/raw/*.svg instead. -->
<svg xmlns="http://www.w3.org/2000/svg" viewBox="0 0 360 220" focusable="false" role="img">
  <rect width="360" height="220" fill="#0b1120" rx="18"/>
  <rect width="320" height="180" x="20" y="20" fill="none" stroke="#1e293b" stroke-dasharray="8 8" stroke-width="2" rx="16"/>
  <g fill="#38bdf8" font-family="'Inter', sans-serif" font-size="12">
    <rect width="88" height="96" x="34" y="56" fill="#020617" stroke="#38bdf8" stroke-width="1.5" rx="12"/>
    <text x="78" y="88" font-weight="600" text-anchor="middle">CRM</text>
    <text x="78" y="110" text-anchor="middle">Pipeline</text>
    <text x="78" y="132" text-anchor="middle">Signals</text>
    <rect width="84" height="132" x="138" y="44" fill="#020617" stroke="#a855f7" stroke-width="1.5" rx="12"/>
    <text x="180" y="94" font-weight="600" text-anchor="middle">Clio</text>
    <text x="180" y="116" text-anchor="middle">Forecast</text>
    <text x="180" y="138" text-anchor="middle">Engine</text>
    <rect width="88" height="76" x="236" y="72" fill="#020617" stroke="#f97316" stroke-width="1.5" rx="12"/>
    <text x="280" y="108" font-weight="600" text-anchor="middle">Board</text>
    <text x="280" y="130" text-anchor="middle">Narratives</text>
  </g>
  <path fill="none" stroke="#22d3ee" stroke-linecap="round" stroke-width="4" d="M122 96c12-10 12-10 16-10m84 24h14m-14 8c12 12 12 12 14 12"/>
  <path fill="none" stroke="#f97316" stroke-dasharray="4 6" stroke-width="3" d="M80 152c40 30 160 30 200 0"/>
</svg>
