<!-- Auto-generated by scripts/brand/build-solution-diagrams.mjs. Edit assets/solutions-diagrams/raw/*.svg instead. -->
<svg xmlns="http://www.w3.org/2000/svg" viewBox="0 0 360 220" focusable="false" role="img">
  <rect width="360" height="220" fill="#020617" rx="18"/>
  <g fill="none" stroke="#1e293b" stroke-width="1.5">
    <rect width="304" height="140" x="28" y="40" rx="16"/>
    <path d="M28 92h304M28 132h304M112 40v140m92-140v140m92-140v140"/>
  </g>
  <g fill="#38bdf8">
    <circle cx="70" cy="72" r="6"/>
    <circle cx="160" cy="72" r="6"/>
    <circle cx="250" cy="72" r="6"/>
    <circle cx="310" cy="72" r="6"/>
    <circle cx="70" cy="112" r="6"/>
    <circle cx="160" cy="112" r="6"/>
    <circle cx="250" cy="112" r="6"/>
    <circle cx="310" cy="112" r="6"/>
    <circle cx="70" cy="152" r="6"/>
    <circle cx="160" cy="152" r="6"/>
    <circle cx="250" cy="152" r="6"/>
    <circle cx="310" cy="152" r="6"/>
  </g>
  <g fill="#f1f5f9" font-family="'Inter', sans-serif" font-size="12" text-anchor="middle">
    <text x="70" y="196">Synth metrics</text>
    <text x="160" y="196">Runtime</text>
    <text x="250" y="196">Human review</text>
    <text x="310" y="196">Business SLAs</text>
  </g>
  <g fill="none" stroke="#22d3ee" stroke-linecap="round" stroke-width="3">
    <path d="M70 60c50-20 90-20 130 0"/>
    <path d="M160 60c40-20 90-20 136 0"/>
  </g>
</svg>
