<!-- Auto-generated by scripts/brand/build-solution-diagrams.mjs. Edit assets/solutions-diagrams/raw/*.svg instead. -->
<svg xmlns="http://www.w3.org/2000/svg" viewBox="0 0 360 220" focusable="false" role="img">
  <defs>
    <linearGradient id="a" x1="0%" x2="100%" y1="0%" y2="0%">
      <stop offset="0%" stop-color="#6366f1"/>
      <stop offset="100%" stop-color="#22d3ee"/>
    </linearGradient>
  </defs>
  <rect width="360" height="220" fill="#020617" rx="18"/>
  <g fill="none" stroke="#1e293b" stroke-dasharray="6 6" stroke-width="2">
    <rect width="324" height="184" x="18" y="18" rx="14"/>
    <rect width="240" height="120" x="60" y="60" rx="12"/>
  </g>
  <text x="30" y="48" fill="#f8fafc" font-family="'Inter', sans-serif" font-size="16" font-weight="600">Nova AI research workbench</text>
  <g fill="#e0f2fe" font-family="'Inter', sans-serif" font-size="13">
    <rect width="120" height="52" x="40" y="76" fill="#0f172a" stroke="#38bdf8" stroke-width="1.5" rx="10"/>
    <text x="52" y="104" font-weight="600">Provision sandboxes</text>
    <rect width="120" height="52" x="200" y="76" fill="#0f172a" stroke="#a855f7" stroke-width="1.5" rx="10"/>
    <text x="212" y="104" font-weight="600">Publish guardrails</text>
    <rect width="120" height="52" x="120" y="150" fill="#0f172a" stroke="#22d3ee" stroke-width="1.5" rx="10"/>
    <text x="132" y="178" font-weight="600">Monitor launches</text>
  </g>
  <g fill="none" stroke="url(#a)" stroke-linecap="round" stroke-width="4">
    <path d="M160 128c30 0 30 22 20 34"/>
    <path d="M200 128c-30 0-30 22-20 34"/>
    <path d="M100 128c-30 0-30 22-10 34"/>
    <path d="M260 128c30 0 30 22 10 34"/>
  </g>
</svg>
