<svg xmlns="http://www.w3.org/2000/svg" viewBox="0 0 1200 630" role="img" aria-labelledby="title desc">
  <title id="title">Abstract visualization of a federated risk mesh</title>
  <desc id="desc">Gradient background with connecting nodes symbolizing secure AI collaboration.</desc>
  <defs>
    <linearGradient id="bg" x1="0%" y1="0%" x2="100%" y2="100%">
      <stop offset="0%" stop-color="#0f172a" />
      <stop offset="50%" stop-color="#1e3a8a" />
      <stop offset="100%" stop-color="#0f172a" />
    </linearGradient>
    <radialGradient id="node" cx="50%" cy="50%" r="50%">
      <stop offset="0%" stop-color="#38bdf8" stop-opacity="0.9" />
      <stop offset="100%" stop-color="#0ea5e9" stop-opacity="0.2" />
    </radialGradient>
  </defs>
  <rect width="1200" height="630" fill="url(#bg)" />
  <g fill="none" stroke="#38bdf8" stroke-opacity="0.4" stroke-width="2">
    <path d="M220 140 Q350 220 480 160 T740 220 T1030 180" />
    <path d="M180 420 Q360 340 560 380 T940 360" />
    <path d="M260 500 Q420 440 600 520 T960 520" />
    <path d="M260 280 Q420 340 600 260 T960 260" />
    <path d="M220 140 L180 420 L260 500 L260 280 Z" opacity="0.3" />
    <path d="M480 160 L560 380 L600 520 L600 260 Z" opacity="0.3" />
    <path d="M740 220 L940 360 L960 520 L960 260 Z" opacity="0.3" />
  </g>
  <g fill="url(#node)">
    <circle cx="220" cy="140" r="22" />
    <circle cx="480" cy="160" r="20" />
    <circle cx="740" cy="220" r="24" />
    <circle cx="1030" cy="180" r="18" />
    <circle cx="180" cy="420" r="20" />
    <circle cx="560" cy="380" r="22" />
    <circle cx="940" cy="360" r="20" />
    <circle cx="260" cy="500" r="20" />
    <circle cx="600" cy="520" r="22" />
    <circle cx="960" cy="520" r="18" />
    <circle cx="260" cy="280" r="18" />
    <circle cx="600" cy="260" r="20" />
    <circle cx="960" cy="260" r="18" />
  </g>
</svg>
